# AST/ASF file generated using VICON BodyLanguage
# -----------------------------------------------
:version 1.10
:name VICON
:units
  mass 1.0
  length 0.45
  angle deg
:documentation
   .ast/.asf automatically generated from VICON data using
   VICON BodyBuilder and BodyLanguage model FoxedUp or BRILLIANT.MOD
:root
   order TX TY TZ RX RY RZ
   axis XYZ
   position 0 0 0  
   orientation 0 0 0 
:bonedata
  begin
     id 1 
     name lhipjoint
     direction 0.440178 -0.822639 0.359871 
     length 2.53113 
     axis 0 0 0  XYZ
  end
  begin
     id 2 
     name lfemur
     direction 0.34202 -0.939693 0  
     length 7.88132  
     axis 0 0 20  XYZ
    dof rx ry rz
    limits (-160.0 20.0)
           (-70.0 70.0)
           (-60.0 70.0)
  end
  begin
     id 3 
     name ltibia
     direction 0.34202 -0.939693 0   
     length 8.43783   
     axis 0 0 20   XYZ
    dof rx
    limits (-10.0 170.0)
  end
  begin
     id 4 
     name lfoot
     direction 0.0886351 -0.243523 0.965837   
     length 2.63414   
     axis -90 7.62852e-016 20   XYZ
    dof rx rz
    limits (-45.0 90.0)
           (-70.0 20.0)
  end
  begin
     id 5 
     name ltoes
     direction 1.53703e-011 -4.21717e-011 1   
     length 1.31427   
     axis -90 7.62852e-016 20   XYZ
    dof rx
    limits (-90.0 20.0)
  end
  begin
     id 6 
     name rhipjoint
     direction -0.399779 -0.839773 0.367367   
     length 2.47948  
     axis 0 0 0  XYZ 
  end
  begin
     id 7 
     name rfemur
     direction -0.34202 -0.939693 0   
     length 7.74806   
     axis 0 0 -20   XYZ
    dof rx ry rz
    limits (-160.0 20.0)
           (-70.0 70.0)
           (-70.0 60.0)
  end
  begin
     id 8 
     name rtibia
     direction -0.34202 -0.939693 0   
     length 8.74432   
     axis 0 0 -20   XYZ
    dof rx
    limits (-10.0 170.0)
 end
 begin
     id 9 
     name rfoot
     direction -0.108514 -0.298139 0.948334   
     length 2.66102  
     axis -90 -7.62852e-016 -20   XYZ
    dof rx rz
    limits (-45.0 90.0)
           (-20.0 70.0)
  end
  begin
     id 10 
     name rtoes
     direction -1.53392e-011 -4.22077e-011 1   
     length 1.31983   
     axis -90 -7.62852e-016 -20   XYZ
    dof rx
    limits (-90.0 20.0)
  end
  begin
     id 11 
     name lowerback
     direction 0.0113257 0.999866 0.0118602   
     length 2.58694   
     axis 0 0 0   XYZ
    dof rx ry rz
    limits (-20.0 45.0)
           (-30.0 30.0)
           (-30.0 30.0)
  end
  begin
     id 12 
     name upperback
     direction -0.0164747 0.995193 -0.0965375   
     length 2.52368   
     axis 0 0 0   XYZ
    dof rx ry rz
    limits (-20.0 45.0)
           (-30.0 30.0)
           (-30.0 30.0)
  end
  begin
     id 13 
     name thorax
     direction -0.0194301 0.99433 -0.104552   
     length 2.56099   
     axis 0 0 0   XYZ
    dof rx ry rz
    limits (-20.0 45.0)
           (-30.0 30.0)
           (-30.0 30.0)
  end
  begin
     id 14 
     name lowerneck
     direction 0.0148543 0.995587 -0.092657   
     length 1.71582   
     axis 0 0 0   XYZ
    dof rx ry rz
    limits (-20.0 45.0)
           (-30.0 30.0)
           (-30.0 30.0)
  end
  begin
     id 15 
     name upperneck
     direction -0.0135467 0.993656 -0.111639   
     length 1.68937   
     axis 0 0 0   XYZ
    dof rx ry rz
    limits (-20.0 45.0)
           (-30.0 30.0)
           (-30.0 30.0)
  end
  begin
     id 16
     name head
     direction -0.00615349 0.999547 -0.029448  
     length 1.7462  
     axis 0 0 0   XYZ
    dof rx ry rz
    limits (-20.0 45.0)
           (-30.0 30.0)
           (-30.0 30.0)
  end
  begin
     id 17 
     name lclavicle
     direction 0.988267 0.149885 0.0293713  
     length 4.47222  
     axis 0 0 0   XYZ
    dof ry rz
    limits (-20.0 10.0)
           (0.0 20.0)
  end
  begin
     id 18 
     name lhumerus
     direction 1 -4.48986e-011 -1.14833e-027   
     length 5.37148   
     axis 180 -30 -90   XYZ
    dof rx ry rz
    limits (-60.0 90.0)
           (-90.0 90.0)
           (-90.0 90.0)
  end
  begin
     id 19
     name lradius
     direction 0.999998 0.00170963 -0.000987055   
     length 3.94212   
     axis 180 -30 -90   XYZ
    dof rx
    limits (-10.0 170.0)
  end
  begin
     id 20
     name lwrist
     direction 0.999998 7.53149e-005 -0.00194706   
     length 1.97106   
     axis 4.65056e-015 90 90   XYZ
    dof ry
    limits (-180.0 0.0)
 end
  begin
     id 21 
     name lhand
     direction 1 -4.48973e-011 -1.31746e-026   
     length 1.17917   
     axis 8.4065e-015 90 90   XYZ
    dof rx rz
    limits (-90.0 90.0)
           (-45.0 45.0)
  end
  begin
     id 22 
     name lfingers
     direction 1 -4.49107e-011 -2.63492e-026   
     length 0.950679   
     axis 1.6813e-014 90 90   XYZ
    dof rx
    limits (0.0 90.0)
  end
  begin
     id 23
     name lthumb
     direction 0.707107 -6.35048e-011 0.707107   
     length 1.36499   
     axis -90 45 2.85299e-015   XYZ
    dof rx rz
    limits (-45.0 45.0)
           (-45.0 45.0)
  end
  begin
     id 24 
     name rclavicle
     direction -0.996699 0.0642895 -0.0495725   
     length 4.62611  
     axis 0 0 0   XYZ 
    dof ry rz
    limits (-10.0 20.0)
           (-20.0 0.0)
  end
  begin
     id 25 
     name rhumerus
     direction -1 -4.48919e-011 -2.41059e-027  
     length 5.4981   
     axis 180 30 90   XYZ
    dof rx ry rz
    limits (-90.0 60.0)
           (-90.0 90.0)
           (-90.0 90.0)
  end
  begin
     id 26 
     name rradius
     direction -0.999999 0.00118101 -0.000681858   
     length 3.48381   
     axis 180 30 90   XYZ
    dof rx
    limits (-10.0 170.0)
  end
  begin
     id 27 
     name rwrist
     direction -0.999999 0.000321823 -0.00132288   
     length 1.7419   
     axis 4.65056e-015 -90 -90   XYZ
    dof ry
    limits (-180.0 0.0)
  end
  begin
     id 28
     name rhand
     direction -1 -4.49022e-011 -1.31746e-026   
     length 1.34932   
     axis 8.4065e-015 -90 -90   XYZ
    dof rx rz
    limits (-90.0 90.0)
           (-45.0 45.0)
  end
  begin
     id 29
     name rfingers
     direction -1 -4.49178e-011 -2.63492e-026   
     length 1.08785   
     axis 1.6813e-014 -90 -90   XYZ
    dof rx
    limits (0.0 90.0)
  end
  begin
     id 30
     name rthumb
     direction -0.707107 -6.34713e-011 0.707107   
     length 1.56195   
     axis -90 -45 -2.85299e-015   XYZ
    dof rx rz
    limits (-45.0 45.0)
           (-45.0 45.0)
  end
:hierarchy
  begin
    root lhipjoint rhipjoint lowerback
    lhipjoint lfemur
    lfemur ltibia
    ltibia lfoot
    lfoot ltoes
    rhipjoint rfemur
    rfemur rtibia
    rtibia rfoot
    rfoot rtoes
    lowerback upperback
    upperback thorax
    thorax lowerneck lclavicle rclavicle
    lowerneck upperneck
    upperneck head
    lclavicle lhumerus
    lhumerus lradius
    lradius lwrist
    lwrist lhand lthumb
    lhand lfingers
    rclavicle rhumerus
    rhumerus rradius
    rradius rwrist
    rwrist rhand rthumb
    rhand rfingers
  end

#!OML:ASF X:\für Bonn\!DataBase\2005_08_10_Bjorn_Final\c3d\bjorn.ASF
:FULLY-SPECIFIED
:DEGREES
16
root -13.9989 18.6968 1.67476 333.696 95.8054 339.932
lowerback 9.33156 -1.67788 6.30579
upperback 17.7412 -0.600217 0.163178
thorax 14.3463 1.20535 -3.15015
lowerneck 11.3484 -0.909685 4.84446
upperneck -7.75061 -1.26824 -8.25652
head -4.25636 -0.27418 -3.25554
rclavicle 1.98785e-014 1.98785e-014
rhumerus -21.156 -19.1187 -82.4342
rradius 47.9127
rwrist 0.646564
rhand -7.38533 13.6883
rfingers 7.12502
rthumb 18.5002 -15.452
lclavicle 1.98785e-014 1.98785e-014
lhumerus -22.9349 -2.47936 83.0975
lradius 50.0629
lwrist -11.0634
lhand -40.1423 -12.1075
lfingers 7.12502
lthumb -13.1049 17.4607
rfemur -12.2791 -3.66408 17.5054
rtibia 42.2587
rfoot -20.1033 10.8447
rtoes -11.0189
lfemur -47.2657 10.0047 -18.1284
ltibia 82.5748
lfoot -5.77216 6.24701
ltoes -15.1297
17
root -13.9566 18.6986 1.67145 333.858 95.7966 340.162
lowerback 9.30401 -1.70222 6.41818
upperback 17.8214 -0.631766 0.258742
thorax 14.4671 1.20713 -3.10266
lowerneck 11.1805 -0.802485 4.83586
upperneck -7.61105 -1.15524 -8.63688
head -4.18146 -0.199451 -3.37934
rclavicle 3.33958e-014 3.73715e-014
rhumerus -21.0128 -19.0446 -82.4314
rradius 47.9182
rwrist 0.65534
rhand -7.35508 13.6386
rfingers 7.12502
rthumb 18.5293 -15.4989
lclavicle 3.33958e-014 3.73715e-014
lhumerus -22.8697 -2.49253 83.1624
lradius 50.1184
lwrist -11.1522
lhand -40.1315 -11.9409
lfingers 7.12502
lthumb -13.0945 17.628
rfemur -11.9782 -3.63543 17.526
rtibia 42.1271
rfoot -20.1794 10.8516
rtoes -10.8656
lfemur -47.3597 10.0069 -18.1369
ltibia 81.3333
lfoot -5.67152 6.82136
ltoes -15.0808
18
root -13.9136 18.7007 1.66768 333.907 95.7685 340.287
lowerback 9.3149 -1.71981 6.52714
upperback 17.8847 -0.653079 0.359123
thorax 14.5437 1.21052 -3.04796
lowerneck 11.0953 -0.699524 4.78797
upperneck -7.53452 -1.05328 -9.01614
head -4.13976 -0.126495 -3.49617
rclavicle 9.54166e-015 -7.15625e-015
rhumerus -20.9217 -19.0434 -82.4009
rradius 47.9415
rwrist 0.684953
rhand -7.31638 13.6584
rfingers 7.12502
rthumb 18.5665 -15.4755
lclavicle 9.54166e-015 -7.15625e-015
lhumerus -22.8493 -2.49909 83.2432
lradius 50.2028
lwrist -11.1879
lhand -40.0526 -11.7658
lfingers 7.12502
lthumb -13.0185 17.808
rfemur -11.6704 -3.60674 17.5451
rtibia 42.0046
rfoot -20.3089 10.8305
rtoes -11.0462
lfemur -47.3782 10.0171 -18.1234
ltibia 80.0525
lfoot -5.56437 7.33383
ltoes -15.0384
19
root -13.8698 18.7034 1.66347 333.999 95.7522 340.457
lowerback 9.31308 -1.73685 6.64441
upperback 17.9411 -0.674478 0.445309
thorax 14.6195 1.21578 -3.01385
lowerneck 11.0054 -0.592775 4.7891
upperneck -7.4478 -0.937892 -9.40135
head -4.09311 -0.0487732 -3.62361
rclavicle -1.74931e-014 -3.10104e-014
rhumerus -20.8563 -18.9987 -82.3817
rradius 47.9565
rwrist 0.714012
rhand -7.28787 13.6574
rfingers 7.12502
rthumb 18.5939 -15.474
lclavicle -1.74931e-014 -3.10104e-014
lhumerus -22.8347 -2.50993 83.3018
lradius 50.2756
lwrist -11.2959
lhand -40.0036 -11.5738
lfingers 7.12502
lthumb -12.9712 18.003
rfemur -11.3523 -3.57559 17.5578
rtibia 41.8794
rfoot -20.4163 10.8467
rtoes -10.9057
lfemur -47.3428 10.0131 -18.1003
ltibia 78.7373
lfoot -5.39267 7.81401
ltoes -14.8858
20
root -13.825 18.7022 1.65902 334.139 95.7342 340.652
lowerback 9.27785 -1.75582 6.77375
upperback 17.9976 -0.701512 0.521937
thorax 14.7159 1.22118 -2.99717
lowerneck 10.9098 -0.485028 4.7927
upperneck -7.37255 -0.821259 -9.79626
head -4.04855 0.0299297 -3.75452
rclavicle -2.38542e-015 -6.36111e-015
rhumerus -20.7575 -18.997 -82.3908
rradius 47.933
rwrist 0.814096
rhand -7.32955 13.7229
rfingers 7.12502
rthumb 18.5538 -15.4123
lclavicle -2.38542e-015 -6.36111e-015
lhumerus -22.8117 -2.53245 83.3401
lradius 50.3319
lwrist -11.4121
lhand -40.0024 -11.5571
lfingers 7.12502
lthumb -12.9701 18.0198
rfemur -11.0763 -3.51575 17.5808
rtibia 41.7679
rfoot -20.5224 10.8388
rtoes -10.7514
lfemur -47.2811 10.0073 -18.0519
ltibia 77.4103
lfoot -5.25084 8.21221
ltoes -14.1504
21
root -13.7792 18.7024 1.65424 333.965 95.7172 340.533
lowerback 9.25357 -1.75411 6.85733
upperback 18.0305 -0.704143 0.609969
thorax 14.7764 1.22792 -2.94257
lowerneck 10.8834 -0.383113 4.77514
upperneck -7.285 -0.711002 -10.1853
head -4.01184 0.107185 -3.87987
rclavicle -7.95139e-015 -2.54444e-014
rhumerus -20.707 -18.9753 -82.3447
rradius 47.9106
rwrist 0.798995
rhand -7.3302 13.7147
rfingers 7.12502
rthumb 18.5532 -15.4206
lclavicle -7.95139e-015 -2.54444e-014
lhumerus -22.8556 -2.56525 83.4109
lradius 50.4328
lwrist -11.5362
lhand -39.9722 -11.5395
lfingers 7.12502
lthumb -12.9409 18.0392
rfemur -10.7859 -3.48864 17.5602
rtibia 41.6587
rfoot -20.6471 10.8656
rtoes -10.7463
lfemur -47.1654 10.0188 -18.033
ltibia 76.0595
lfoot -5.05742 8.58415
ltoes -13.6618
22
root -13.7333 18.7028 1.64859 334.111 95.7017 340.746
lowerback 9.22378 -1.76227 7.0012
upperback 18.0744 -0.716493 0.675589
thorax 14.8554 1.2423 -2.94599
lowerneck 10.8068 -0.282847 4.80025
upperneck -7.20147 -0.596112 -10.5567
head -3.96716 0.182745 -4.00667
rclavicle 1.82882e-014 4.85035e-014
rhumerus -20.6319 -18.9956 -82.3567
rradius 47.8377
rwrist 0.865803
rhand -7.4325 13.7486
rfingers 7.12502
rthumb 18.4548 -15.396
lclavicle 1.82882e-014 4.85035e-014
lhumerus -22.8751 -2.66634 83.4398
lradius 50.5185
lwrist -11.6291
lhand -40.0078 -11.459
lfingers 7.12502
lthumb -12.9753 18.1175
rfemur -10.4907 -3.48021 17.576
rtibia 41.5593
rfoot -20.7653 10.8657
rtoes -10.7821
lfemur -47.0135 10.024 -17.9647
ltibia 74.6923
lfoot -4.77936 8.9452
ltoes -13.0269
23
root -13.6858 18.7019 1.64401 334.204 95.6876 340.896
lowerback 9.18259 -1.75835 7.13405
upperback 18.1007 -0.715294 0.727383
thorax 14.9198 1.26098 -2.95916
lowerneck 10.7798 -0.185254 4.87625
upperneck -7.10354 -0.474939 -10.9332
head -3.92552 0.260768 -4.1441
rclavicle 7.15625e-015 1.43125e-014
rhumerus -20.6177 -19.0913 -82.3835
rradius 47.7896
rwrist 1.02081
rhand -7.50994 13.8067
rfingers 7.12502
rthumb 18.3803 -15.345
lclavicle 7.15625e-015 1.43125e-014
lhumerus -22.9284 -2.80353 83.4346
lradius 50.6232
lwrist -11.6587
lhand -40.0182 -11.4795
lfingers 7.12502
lthumb -12.9853 18.0964
rfemur -10.1933 -3.43099 17.59
rtibia 41.4516
rfoot -20.9053 10.8562
rtoes -10.7827
lfemur -46.8326 10.04 -17.8982
ltibia 73.3071
lfoot -4.45439 9.32302
ltoes -12.3263
24
root -13.6382 18.7003 1.63826 334.341 95.6716 341.092
lowerback 9.14764 -1.75846 7.25915
upperback 18.1203 -0.721425 0.796166
thorax 14.9704 1.27235 -2.94937
lowerneck 10.7618 -0.0736472 4.84083
upperneck -7.02698 -0.344545 -11.2285
head -3.89023 0.342606 -4.23828
rclavicle 3.18055e-014 3.81667e-014
rhumerus -20.6186 -19.1112 -82.374
rradius 47.7509
rwrist 1.02245
rhand -7.57998 13.8164
rfingers 7.12502
rthumb 18.3129 -15.3415
lclavicle 3.18055e-014 3.81667e-014
lhumerus -22.9909 -2.93595 83.4525
lradius 50.7202
lwrist -11.7483
lhand -40.0615 -11.4014
lfingers 7.12502
lthumb -13.027 18.1719
rfemur -9.8906 -3.38946 17.6052
rtibia 41.336
rfoot -21.039 10.8544
rtoes -10.7819
lfemur -46.6204 10.0489 -17.8197
ltibia 71.9021
lfoot -4.04913 9.70137
ltoes -11.7219
25
root -13.5896 18.7007 1.63245 334.482 95.668 341.311
lowerback 9.11976 -1.76875 7.37615
upperback 18.1354 -0.740704 0.858694
thorax 15.0089 1.27613 -2.94274
lowerneck 10.8119 0.0381701 4.81018
upperneck -6.96751 -0.212829 -11.5293
head -3.87108 0.427507 -4.33591
rclavicle 3.97569e-015 7.95139e-016
rhumerus -20.6323 -19.122 -82.3717
rradius 47.68
rwrist 1.0868
rhand -7.68009 13.8565
rfingers 7.12502
rthumb 18.2166 -15.3105
lclavicle 3.97569e-015 7.95139e-016
lhumerus -23.0803 -3.03315 83.4678
lradius 50.7999
lwrist -11.7753
lhand -40.1064 -11.4252
lfingers 7.12502
lthumb -13.0704 18.1452
rfemur -9.55929 -3.37049 17.6176
rtibia 41.209
rfoot -21.1521 10.8431
rtoes -10.7837
lfemur -46.3503 10.0417 -17.7312
ltibia 70.4783
lfoot -3.59083 10.0551
ltoes -11.172
26
root -13.5405 18.701 1.62619 334.964 95.6355 341.865
lowerback 9.08382 -1.78071 7.52604
upperback 18.1467 -0.765123 0.937286
thorax 15.048 1.27998 -2.93632
lowerneck 10.8365 0.161097 4.73176
upperneck -6.87924 -0.0678643 -11.8002
head -3.83752 0.517235 -4.41626
rclavicle -1.59028e-015 -1.03368e-014
rhumerus -20.6518 -19.1219 -82.3524
rradius 47.6207
rwrist 1.18884
rhand -7.77062 13.8494
rfingers 7.12502
rthumb 18.1295 -15.3257
lclavicle -1.59028e-015 -1.03368e-014
lhumerus -23.1609 -3.0986 83.4923
lradius 50.8775
lwrist -11.873
lhand -40.1354 -11.3912
lfingers 7.12502
lthumb -13.0983 18.1775
rfemur -9.22461 -3.33289 17.6717
rtibia 41.0669
rfoot -21.264 10.8382
rtoes -10.7135
lfemur -46.0677 10.0763 -17.6005
ltibia 69.0403
lfoot -3.09235 10.3576
ltoes -10.6615
27
root -13.4914 18.701 1.61984 335.553 95.6162 342.506
lowerback 9.04844 -1.79014 7.67052
upperback 18.1379 -0.788671 1.01783
thorax 15.06 1.28064 -2.92561
lowerneck 10.8895 0.282566 4.62967
upperneck -6.80666 0.0751885 -12.0203
head -3.81327 0.604769 -4.47701
rclavicle -2.3059e-014 -4.13472e-014
rhumerus -20.66 -19.0917 -82.3337
rradius 47.5205
rwrist 1.18113
rhand -7.86559 13.8437
rfingers 7.12502
rthumb 18.0382 -15.3399
lclavicle -2.3059e-014 -4.13472e-014
lhumerus -23.2556 -3.20733 83.5061
lradius 50.9357
lwrist -11.9227
lhand -40.2013 -11.4443
lfingers 7.12502
lthumb -13.1619 18.1203
rfemur -8.90666 -3.31 17.731
rtibia 40.918
rfoot -21.3877 10.8366
rtoes -10.7177
lfemur -45.7801 10.1038 -17.464
ltibia 67.5774
lfoot -2.52277 10.6083
ltoes -10.4572
28
root -13.4402 18.7019 1.6134 335.912 95.6043 342.925
lowerback 9.00465 -1.80571 7.77781
upperback 18.1307 -0.821338 1.08928
thorax 15.0771 1.27261 -2.90504
lowerneck 10.9151 0.412916 4.56049
upperneck -6.69294 0.235263 -12.2884
head -3.77049 0.700653 -4.55841
rclavicle -5.56597e-015 7.95139e-015
rhumerus -20.6747 -19.1262 -82.3256
rradius 47.4165
rwrist 1.29995
rhand -7.91755 13.8517
rfingers 7.12502
rthumb 17.9882 -15.3364
lclavicle -5.56597e-015 7.95139e-015
lhumerus -23.3869 -3.3112 83.5175
lradius 51.0383
lwrist -11.9025
lhand -40.2219 -11.4549
lfingers 7.12502
lthumb -13.1817 18.1084
rfemur -8.56853 -3.28585 17.7626
rtibia 40.7683
rfoot -21.5099 10.8531
rtoes -10.5752
lfemur -45.4247 10.1035 -17.3345
ltibia 66.0898
lfoot -1.95536 10.8451
ltoes -9.94553
